<?xml version="1.0" standalone="no"?>
<svg xmlns="http://www.w3.org/2000/svg" viewBox="0 0 110 68" width="110" height="68"><g fill="#111f2f" color="#111f2f" transform="translate(37.136 0) scale(0.7291667) "><svg width="48.0" height="48.0" x="0.0" y="0.0" viewBox="0 0 48 48"><path fill="currentColor" fill-rule="evenodd" d="M21.088 35.003c-.108 0-.27 0-.432-.054-1.294-.27-1.294-1.403-1.348-2.212-.054-.862-.108-1.186-.54-1.887-.215-.324.054-.647.378-.647.054 0 .108 0 .216.054 1.402.7 3.344 1.887 3.29 3.182 0 .054-.216 1.564-1.564 1.564m-2.643-14.994c-.054.162-.162.27-.378.378a1.787 1.787 0 0 1-1.294 0c-.593-.27-1.133-.701-1.564-1.079-.701-.593-1.348-1.132-2.157-.97-.54.053-.971.377-1.349.97-.161.27-.27.594-.161.917.215.755 1.024 1.187 2.319 1.888 2.21 1.186 4.045 2.265 4.045 3.883v.431c0 .108-.054.162-.054.27 0 .054-.054.108-.054.162 0 .054-.054.108-.054.162-.054.107-.108.161-.216.27l-.162.161c-.431.324-1.024.485-1.564.485-.755 0-1.726-.323-1.887-1.294-.27-1.402-2.535-3.074-4.53-3.236-.972-.108-1.834.162-2.428.755l-.215.27c-.054.054-.108.162-.162.216-.054.107-.108.161-.162.27 0 .053-.054.053-.054.107-.054.054-.054.108-.108.216-.054 0-.054.054-.054.108-.054.054-.054.162-.054.215-.27 1.187 1.24 2.104 3.236 3.344 3.29 1.996 5.879 3.83 4.908 6.095-.216.485-.647.97-1.186 1.294a3.536 3.536 0 0 1-1.78.485c-1.24 0-2.265-.755-2.859-2.103-.593-1.348-1.294-2.05-2.103-2.05-.593 0-1.133.324-1.51.971-.162.378-.324.81-.324 1.295-1.833-3.236-2.912-7.011-2.912-10.949C1.618 11.596 11.649 1.564 24 1.564c1.672 0 3.344.162 4.962.54.593.162.809.54.917.863.161.539 0 1.186-.432 1.564-.377.377-.97.431-1.672.215-1.456-.431-2.912-.215-3.775.648-.593.593-.809 1.402-.54 2.157.216.647.918 1.726 3.29 2.157 1.834.324 3.183.216 4.854.108a54.109 54.109 0 0 1 3.29-.108c3.128 0 4.854 1.564 5.394 2.859.377.917.27 1.78-.324 2.373-1.186 1.186-4.207-.216-5.609-1.025-.162-.108-.27-.162-.431-.27-.378-.215-.863-.108-1.08.27-.215.378-.107.863.217 1.079.054.054.215.161.431.27 1.834 1.186 2.859 2.804 2.859 4.476 0 1.402-.755 2.642-2.05 3.451-1.025.594-1.941.648-2.643.054-.7-.593-.97-1.672-.593-2.696.378-1.133.216-2.212-.485-3.02-1.133-1.295-3.506-1.78-6.04-1.295-.162.054-.324.054-.432.108-.917.27-2.697.97-4.045 2.157-.485-1.618-2.157-2.642-3.506-3.397-.809-.486-1.887-1.133-1.887-1.51 0-.486.593-1.241 1.24-1.403.593-.162 1.133.216 1.618 1.025.755 1.348 2.157 2.265 3.398 2.157 1.025-.054 1.887-.647 2.373-1.726.377-.809.377-1.833.054-2.696-.27-.701-.917-1.618-2.427-2.212a.797.797 0 0 0-1.025.432.797.797 0 0 0 .432 1.025c.809.323 1.294.755 1.51 1.294.215.54.108 1.079 0 1.402-.216.54-.54.81-.971.81-.647.053-1.51-.54-1.942-1.349-1.186-2.103-2.804-1.942-3.397-1.78-1.349.324-2.481 1.672-2.481 2.966 0 1.295 1.294 2.05 2.642 2.859 1.996 1.186 3.236 2.05 2.75 3.613M23.947 0c1.834 0 3.614.216 5.34.594 1.078.215 1.833.97 2.103 1.995.27 1.079-.054 2.32-.863 3.128-.486.432-1.564 1.133-3.29.594-1.079-.324-1.834-.054-2.157.27-.108.107-.216.323-.162.539.108.377.701.862 2.05 1.078 1.671.27 2.912.216 4.476.108.97-.054 2.05-.108 3.397-.108 3.938 0 6.149 2.05 6.904 3.83.647 1.51.377 3.074-.647 4.098-1.025 1.025-2.481 1.079-3.884.755.54.917.81 1.888.81 2.913 0 1.995-1.025 3.775-2.859 4.854-1.564.97-3.236.97-4.476-.054-1.24-1.025-1.672-2.859-1.079-4.477.216-.593.108-1.078-.216-1.456-.72-.824-2.424-1.107-4.22-.802l-.256.047h-.054c-.054.054-.162.054-.216.108-1.186.54-2.48 3.236-2.373 6.256 0 1.672.432 5.77 4.369 7.227 1.78.701 3.505 1.025 5.123 1.025 2.75 0 5.07-.971 7.12-2.427 1.132-.755 2.21-1.726 3.235-2.697 2.178-2.333 3.708-4.966 4.014-6.891l.031-.228v-.054c0-.054.054-.108.054-.162 0 0 .03-.03.046-.068l.008-.04.108-.107.023-.023.085-.085s.054-.054.108-.054c.036 0 .072-.024.108-.04l.054-.014h.323c.054 0 .108.054.162.054 0 0 .03.03.068.045l.04.009.216.215s.053.054.053.108c0 .036.024.072.04.108l.014.054v.054c.216 1.348.324 2.157.324 3.667 0 12.868-10.202 23.41-23.07 23.881l-.39.012h-1.834c-1.618-.054-3.236-.27-4.746-.702-.122 0-.243-.03-.364-.068l-.122-.04h-.054c-.054 0-.108-.053-.162-.053C7.281 44.063 0 34.84 0 23.946 0 10.733 10.787-.054 23.946 0zm16.611 18.23c.378 0 .701.108 1.079.323 1.618 1.079 2.373 2.265 2.157 3.506 0 .108-.054.162-.054.216-.323.917-1.132 1.833-2.373 1.833-.27 0-.593-.054-.863-.161a2.387 2.387 0 0 1-1.51-1.618 3.42 3.42 0 0 1-.073-1.096l.02-.145v-.216c-.055 0-.055 0-.055-.054-.27-.539-.215-1.186.108-1.725.378-.54.917-.863 1.564-.863zm0 1.672c-.161 0-.27.161-.215.323.215.378.215.54.16 1.025-.053.431-.106 1.025.54 1.24a.687.687 0 0 0 .324.054c.594 0 .81-.7.81-.647.107-.701-.864-1.456-1.51-1.941 0-.054-.055-.054-.109-.054zM35.542 2.319c.754.108 3.073.378 3.667 2.104 0 .054.054.162.054.215.054.216.161 1.133-.432 1.942-.377.54-1.025.863-1.726.97h-.323c-.7 0-1.348-.269-1.834-.808-.323-.324-.485-.701-.593-.97v-.055c0-.054-.054-.108-.054-.108l-.054-.054c-.593-.431-.862-1.24-.647-1.995.216-.755.917-1.24 1.726-1.24zm-.162 1.564c-.216 0-.324.27-.216.378.378.27.485.431.648.809.161.377.376.863.97.863h.162c.868-.097.83-.84.812-.996l-.003-.029c-.216-.647-1.51-.917-2.373-1.025z"></path></svg></g><line x1="38.18599999999999" y1="41" x2="71.08599999999998" y2="41" stroke="#5a658c" stroke-linecap="round"></line><path fill="#5a658c" fill-rule="nonzero" d="M14.40 16.20Q13.25 16.20 12.12 15.56Q10.99 14.93 10.32 13.08L10.32 13.08L9.72 11.52L3 11.52L1.08 16.08L0 16.08L6.72 0.24L7.44 0.24L12.72 13.08Q13.32 14.47 13.85 14.99Q14.38 15.50 15.36 15.60L15.36 15.60L15.36 16.08Q14.93 16.20 14.40 16.20L14.40 16.20ZM6.36 3.60L3.36 10.56L9.24 10.56L6.36 3.60ZM23.40 20.64L23.40 15.60Q22.70 15.94 22.01 16.13Q21.31 16.32 20.40 16.32L20.40 16.32Q18.17 16.32 17.00 14.66Q15.84 13.01 15.84 10.44L15.84 10.44Q15.84 7.87 16.96 6.22Q18.07 4.56 20.16 4.56L20.16 4.56Q21.38 4.56 22.18 4.94Q22.97 5.33 23.40 5.88L23.40 5.88L23.52 5.88L24.36 4.80L25.56 4.80L25.56 20.64L23.40 20.64ZM21.12 15.36Q21.62 15.36 22.15 15.17Q22.68 14.98 23.40 14.64L23.40 14.64L23.40 6.96Q22.90 6.29 22.34 5.90Q21.79 5.52 20.88 5.52L20.88 5.52Q19.51 5.52 18.82 6.88Q18.12 8.23 18.12 10.44L18.12 10.44Q18.12 12.67 18.85 14.02Q19.58 15.36 21.12 15.36L21.12 15.36ZM33.12 16.32Q31.32 16.32 30.18 15.36Q29.04 14.40 29.04 12.00L29.04 12.00L29.04 7.68Q29.04 6.46 28.70 5.87Q28.37 5.28 27.36 5.28L27.36 5.28L27.12 5.28L27.12 4.80L29.04 4.80Q29.93 4.80 30.37 5.03Q30.82 5.26 31.01 5.86Q31.20 6.46 31.20 7.68L31.20 7.68L31.20 12.00Q31.20 13.68 31.96 14.46Q32.71 15.24 33.84 15.24L33.84 15.24Q35.11 15.24 36.24 13.97L36.24 13.97L36.24 4.80L38.40 4.80L38.40 16.08L37.20 16.08L36.36 15.12L36.24 15.12Q35.74 15.62 34.93 15.97Q34.13 16.32 33.12 16.32L33.12 16.32ZM44.54 16.32Q43.78 16.32 42.98 16.00Q42.19 15.67 41.63 14.93Q41.06 14.18 41.06 12.96L41.06 12.96Q41.06 11.14 42.76 10.37Q44.45 9.60 47.18 9.60L47.18 9.60L47.90 9.60Q47.90 7.25 47.26 6.38Q46.61 5.52 45.38 5.52L45.38 5.52Q44.30 5.52 43.66 5.98Q43.01 6.43 42.74 7.56L42.74 7.56L41.66 7.56Q41.66 6.74 41.76 6.28Q41.86 5.81 42.26 5.40L42.26 5.40Q42.70 4.97 43.69 4.76Q44.69 4.56 45.86 4.56L45.86 4.56Q47.81 4.56 48.94 5.60Q50.06 6.65 50.06 9.60L50.06 9.60L50.06 16.08L48.86 16.08L48.02 15.00L47.90 15.00Q47.47 15.55 46.63 15.94Q45.79 16.32 44.54 16.32L44.54 16.32ZM45.62 15.24Q46.42 15.24 46.94 14.86Q47.47 14.47 47.90 13.80L47.90 13.80L47.90 10.56L47.18 10.56Q45.41 10.56 44.38 11.22Q43.34 11.88 43.34 12.96L43.34 12.96Q43.34 14.06 44.00 14.65Q44.66 15.24 45.62 15.24L45.62 15.24ZM65.18 16.32L59.62 3.05Q59.02 1.66 58.49 1.14Q57.96 0.62 56.98 0.53L56.98 0.53L56.98 0.05Q57.10 0.05 57.32 0.02Q57.55 0 57.79 0L57.79 0Q58.99 0 60.10 0.61Q61.20 1.22 61.97 3.05L61.97 3.05L66.07 12.72L67.49 9.43Q68.50 7.10 71.35 0.24L71.35 0.24L72.50 0.24L65.62 16.32L65.18 16.32ZM76.03 3.36Q75.48 3.36 75.08 2.90Q74.69 2.45 74.69 1.82L74.69 1.82Q74.69 1.32 74.99 1.03Q75.29 0.74 75.79 0.74L75.79 0.74Q76.34 0.74 76.74 1.20Q77.14 1.66 77.14 2.28L77.14 2.28Q77.14 2.78 76.84 3.07Q76.54 3.36 76.03 3.36L76.03 3.36ZM75.12 16.08L75.12 7.68Q75.12 6.46 74.78 5.87Q74.45 5.28 73.44 5.28L73.44 5.28L72.96 5.28L72.96 4.80L75.12 4.80Q76.01 4.80 76.45 5.03Q76.90 5.26 77.09 5.86Q77.28 6.46 77.28 7.68L77.28 7.68L77.28 16.08L75.12 16.08ZM84 16.32Q82.66 16.32 81.89 15.55Q81.12 14.78 81.12 13.20L81.12 13.20L81.12 5.76L79.44 5.76L79.44 4.80L81.12 4.80L81.12 2.64L82.32 1.20L83.28 1.20L83.28 4.80L86.16 4.80L86.16 5.76L83.28 5.76L83.28 13.20Q83.28 15.36 84.96 15.36L84.96 15.36Q85.54 15.36 85.93 15.24Q86.33 15.12 86.76 14.88L86.76 14.88L87 15.36Q86.45 15.77 85.78 16.04Q85.10 16.32 84 16.32L84 16.32ZM91.46 16.32Q90.70 16.32 89.90 16.00Q89.11 15.67 88.55 14.93Q87.98 14.18 87.98 12.96L87.98 12.96Q87.98 11.14 89.68 10.37Q91.37 9.60 94.10 9.60L94.10 9.60L94.82 9.60Q94.82 7.25 94.18 6.38Q93.53 5.52 92.30 5.52L92.30 5.52Q91.22 5.52 90.58 5.98Q89.93 6.43 89.66 7.56L89.66 7.56L88.58 7.56Q88.58 6.74 88.68 6.28Q88.78 5.81 89.18 5.40L89.18 5.40Q89.62 4.97 90.61 4.76Q91.61 4.56 92.78 4.56L92.78 4.56Q94.73 4.56 95.86 5.60Q96.98 6.65 96.98 9.60L96.98 9.60L96.98 16.08L95.78 16.08L94.94 15.00L94.82 15.00Q94.39 15.55 93.55 15.94Q92.71 16.32 91.46 16.32L91.46 16.32ZM92.54 15.24Q93.34 15.24 93.86 14.86Q94.39 14.47 94.82 13.80L94.82 13.80L94.82 10.56L94.10 10.56Q92.33 10.56 91.30 11.22Q90.26 11.88 90.26 12.96L90.26 12.96Q90.26 14.06 90.92 14.65Q91.58 15.24 92.54 15.24L92.54 15.24ZM104.71 16.32Q103.08 16.32 101.95 15.54Q100.82 14.76 100.25 13.43Q99.67 12.10 99.67 10.44L99.67 10.44Q99.67 8.81 100.25 7.46Q100.82 6.12 101.92 5.34Q103.01 4.56 104.47 4.56L104.47 4.56Q106.90 4.56 108.08 5.92Q109.27 7.27 109.27 9.84L109.27 9.84L109.22 10.80L101.95 10.80Q101.95 12.82 102.82 14.09Q103.68 15.36 105.19 15.36L105.19 15.36Q106.32 15.36 107.10 14.88Q107.88 14.40 108.55 13.44L108.55 13.44L109.03 13.80Q108.24 15.12 107.18 15.72Q106.13 16.32 104.71 16.32L104.71 16.32ZM101.95 9.84L106.99 9.84Q106.99 7.73 106.37 6.62Q105.74 5.52 104.47 5.52L104.47 5.52Q103.75 5.52 103.18 6.08Q102.60 6.65 102.28 7.63Q101.95 8.62 101.95 9.84L101.95 9.84Z" transform="translate(0, 47)"></path></svg>